# Blender 4.4.3
# www.blender.org
mtllib Erasor.mtl
o Cube
v -0.067999 0.892168 -0.754416
v 0.488587 -0.992426 -0.382236
v 0.086392 1.137976 0.259381
v 0.642979 -0.746618 0.631562
v -0.642979 0.746618 -0.631562
v -0.086392 -1.137976 -0.259381
v -0.488587 0.992426 0.382236
v 0.067999 -0.892168 0.754416
vn -0.2783 0.9423 -0.1861
vn 0.1464 0.2331 0.9614
vn -0.9493 -0.2403 0.2028
vn 0.2783 -0.9423 0.1861
vn 0.9493 0.2403 -0.2028
vn -0.1464 -0.2331 -0.9614
vt 0.625000 0.500000
vt 0.875000 0.500000
vt 0.875000 0.750000
vt 0.625000 0.750000
vt 0.375000 0.750000
vt 0.625000 1.000000
vt 0.375000 1.000000
vt 0.375000 0.000000
vt 0.625000 0.000000
vt 0.625000 0.250000
vt 0.375000 0.250000
vt 0.125000 0.500000
vt 0.375000 0.500000
vt 0.125000 0.750000
s 0
usemtl Material
f 1/1/1 5/2/1 7/3/1 3/4/1
f 4/5/2 3/4/2 7/6/2 8/7/2
f 8/8/3 7/9/3 5/10/3 6/11/3
f 6/12/4 2/13/4 4/5/4 8/14/4
f 2/13/5 1/1/5 3/4/5 4/5/5
f 6/11/6 5/10/6 1/1/6 2/13/6
